<?xml version="1.0" encoding="UTF-8" standalone="no"?>
<!DOCTYPE svg PUBLIC "-//W3C//DTD SVG 1.1//EN"
 "http://www.w3.org/Graphics/SVG/1.1/DTD/svg11.dtd">
<!-- Generated by graphviz version 12.0.0 (20240803.0821)
 -->
<!-- Title: snakemake_dag Pages: 1 -->
<svg width="193pt" height="332pt"
 viewBox="0.00 0.00 192.62 332.00" xmlns="http://www.w3.org/2000/svg" xmlns:xlink="http://www.w3.org/1999/xlink">
<g id="graph0" class="graph" transform="scale(1 1) rotate(0) translate(4 328)">
<title>snakemake_dag</title>
<polygon fill="white" stroke="none" points="-4,4 -4,-328 188.62,-328 188.62,4 -4,4"/>
<!-- 0 -->
<g id="node1" class="node">
<title>0</title>
<path fill="none" stroke="#59d856" stroke-width="2" stroke-dasharray="5,2" d="M122.5,-36C122.5,-36 92.5,-36 92.5,-36 86.5,-36 80.5,-30 80.5,-24 80.5,-24 80.5,-12 80.5,-12 80.5,-6 86.5,0 92.5,0 92.5,0 122.5,0 122.5,0 128.5,0 134.5,-6 134.5,-12 134.5,-12 134.5,-24 134.5,-24 134.5,-30 128.5,-36 122.5,-36"/>
<text text-anchor="middle" x="107.5" y="-16" font-family="sans" font-size="10.00">all</text>
</g>
<!-- 1 -->
<g id="node2" class="node">
<title>1</title>
<path fill="none" stroke="#56a9d8" stroke-width="2" stroke-dasharray="5,2" d="M105.25,-180C105.25,-180 39.75,-180 39.75,-180 33.75,-180 27.75,-174 27.75,-168 27.75,-168 27.75,-156 27.75,-156 27.75,-150 33.75,-144 39.75,-144 39.75,-144 105.25,-144 105.25,-144 111.25,-144 117.25,-150 117.25,-156 117.25,-156 117.25,-168 117.25,-168 117.25,-174 111.25,-180 105.25,-180"/>
<text text-anchor="middle" x="72.5" y="-160" font-family="sans" font-size="10.00">generate_report</text>
</g>
<!-- 1&#45;&gt;0 -->
<g id="edge1" class="edge">
<title>1&#45;&gt;0</title>
<path fill="none" stroke="grey" stroke-width="2" d="M75.86,-143.17C79.36,-125.13 85.2,-96.48 91.5,-72 93.44,-64.46 95.75,-56.39 98.01,-48.87"/>
<polygon fill="grey" stroke="grey" stroke-width="2" points="101.31,-50.04 100.91,-39.46 94.62,-47.98 101.31,-50.04"/>
</g>
<!-- 5 -->
<g id="node6" class="node">
<title>5</title>
<path fill="none" stroke="#d8ac56" stroke-width="2" stroke-dasharray="5,2" d="M172.62,-108C172.62,-108 112.38,-108 112.38,-108 106.38,-108 100.38,-102 100.38,-96 100.38,-96 100.38,-84 100.38,-84 100.38,-78 106.38,-72 112.38,-72 112.38,-72 172.62,-72 172.62,-72 178.62,-72 184.62,-78 184.62,-84 184.62,-84 184.62,-96 184.62,-96 184.62,-102 178.62,-108 172.62,-108"/>
<text text-anchor="middle" x="142.5" y="-88" font-family="sans" font-size="10.00">custom_report</text>
</g>
<!-- 1&#45;&gt;5 -->
<g id="edge7" class="edge">
<title>1&#45;&gt;5</title>
<path fill="none" stroke="grey" stroke-width="2" d="M90.16,-143.34C97.81,-135.69 106.94,-126.56 115.42,-118.08"/>
<polygon fill="grey" stroke="grey" stroke-width="2" points="117.86,-120.59 122.46,-111.04 112.91,-115.64 117.86,-120.59"/>
</g>
<!-- 2 -->
<g id="node3" class="node">
<title>2</title>
<path fill="none" stroke="#56d8a9" stroke-width="2" stroke-dasharray="5,2" d="M143.88,-252C143.88,-252 97.12,-252 97.12,-252 91.12,-252 85.12,-246 85.12,-240 85.12,-240 85.12,-228 85.12,-228 85.12,-222 91.12,-216 97.12,-216 97.12,-216 143.88,-216 143.88,-216 149.88,-216 155.88,-222 155.88,-228 155.88,-228 155.88,-240 155.88,-240 155.88,-246 149.88,-252 143.88,-252"/>
<text text-anchor="middle" x="120.5" y="-232" font-family="sans" font-size="10.00">mbar_chart</text>
</g>
<!-- 2&#45;&gt;1 -->
<g id="edge3" class="edge">
<title>2&#45;&gt;1</title>
<path fill="none" stroke="grey" stroke-width="2" d="M108.39,-215.34C103.42,-208.1 97.55,-199.53 92.01,-191.45"/>
<polygon fill="grey" stroke="grey" stroke-width="2" points="95.03,-189.67 86.49,-183.4 89.26,-193.62 95.03,-189.67"/>
</g>
<!-- 2&#45;&gt;5 -->
<g id="edge8" class="edge">
<title>2&#45;&gt;5</title>
<path fill="none" stroke="grey" stroke-width="2" d="M123.29,-215.02C126.92,-191.54 133.34,-150.11 137.75,-121.64"/>
<polygon fill="grey" stroke="grey" stroke-width="2" points="141.2,-122.25 139.27,-111.83 134.28,-121.18 141.2,-122.25"/>
</g>
<!-- 3 -->
<g id="node4" class="node">
<title>3</title>
<path fill="none" stroke="#afd856" stroke-width="2" stroke-dasharray="5,2" d="M139,-324C139,-324 102,-324 102,-324 96,-324 90,-318 90,-312 90,-312 90,-300 90,-300 90,-294 96,-288 102,-288 102,-288 139,-288 139,-288 145,-288 151,-294 151,-300 151,-300 151,-312 151,-312 151,-318 145,-324 139,-324"/>
<text text-anchor="middle" x="120.5" y="-304" font-family="sans" font-size="10.00">unzip_file</text>
</g>
<!-- 3&#45;&gt;2 -->
<g id="edge5" class="edge">
<title>3&#45;&gt;2</title>
<path fill="none" stroke="grey" stroke-width="2" d="M120.5,-287.34C120.5,-280.75 120.5,-273.08 120.5,-265.67"/>
<polygon fill="grey" stroke="grey" stroke-width="2" points="124,-265.93 120.5,-255.93 117,-265.93 124,-265.93"/>
</g>
<!-- 4 -->
<g id="node5" class="node">
<title>4</title>
<path fill="none" stroke="#d85656" stroke-width="2" stroke-dasharray="5,2" d="M55,-252C55,-252 12,-252 12,-252 6,-252 0,-246 0,-240 0,-240 0,-228 0,-228 0,-222 6,-216 12,-216 12,-216 55,-216 55,-216 61,-216 67,-222 67,-228 67,-228 67,-240 67,-240 67,-246 61,-252 55,-252"/>
<text text-anchor="middle" x="33.5" y="-232" font-family="sans" font-size="10.00">ebar_chart</text>
</g>
<!-- 3&#45;&gt;4 -->
<g id="edge6" class="edge">
<title>3&#45;&gt;4</title>
<path fill="none" stroke="grey" stroke-width="2" d="M98.55,-287.34C88.63,-279.36 76.71,-269.77 65.8,-260.99"/>
<polygon fill="grey" stroke="grey" stroke-width="2" points="68.09,-258.34 58.11,-254.8 63.7,-263.8 68.09,-258.34"/>
</g>
<!-- 3&#45;&gt;5 -->
<g id="edge10" class="edge">
<title>3&#45;&gt;5</title>
<path fill="none" stroke="grey" stroke-width="2" d="M140.43,-287.45C149.65,-277.99 159.63,-265.5 164.5,-252 180.31,-208.19 166.58,-153.93 154.84,-120.92"/>
<polygon fill="grey" stroke="grey" stroke-width="2" points="158.2,-119.93 151.4,-111.8 151.65,-122.39 158.2,-119.93"/>
</g>
<!-- 4&#45;&gt;1 -->
<g id="edge4" class="edge">
<title>4&#45;&gt;1</title>
<path fill="none" stroke="grey" stroke-width="2" d="M43.34,-215.34C47.24,-208.34 51.82,-200.12 56.19,-192.28"/>
<polygon fill="grey" stroke="grey" stroke-width="2" points="59.24,-193.99 61.05,-183.55 53.13,-190.58 59.24,-193.99"/>
</g>
<!-- 4&#45;&gt;5 -->
<g id="edge9" class="edge">
<title>4&#45;&gt;5</title>
<path fill="none" stroke="grey" stroke-width="2" d="M23.6,-215.09C14.48,-195.94 4.34,-165.45 18.5,-144 33.78,-120.85 61.48,-107.78 86.83,-100.41"/>
<polygon fill="grey" stroke="grey" stroke-width="2" points="87.67,-103.81 96.47,-97.9 85.91,-97.03 87.67,-103.81"/>
</g>
<!-- 5&#45;&gt;0 -->
<g id="edge2" class="edge">
<title>5&#45;&gt;0</title>
<path fill="none" stroke="grey" stroke-width="2" d="M133.67,-71.34C130.17,-64.34 126.06,-56.12 122.14,-48.28"/>
<polygon fill="grey" stroke="grey" stroke-width="2" points="125.41,-46.99 117.8,-39.61 119.15,-50.12 125.41,-46.99"/>
</g>
</g>
</svg>
